<svg width="36" height="35" viewBox="0 0 36 35" fill="none" xmlns="http://www.w3.org/2000/svg">
<path d="M7.69864 32.9375L1.98976 27.1911C1.23272 26.4291 0.814618 25.4008 0.827443 24.3324C0.840269 23.2641 1.28297 22.2431 2.05815 21.4943L6.44239 17.2588L2.16074 12.949C1.40369 12.187 0.985596 11.1587 0.998421 10.0903C1.01125 9.02195 1.45394 8.00104 2.22913 7.25216L8.07479 1.60489C8.84997 0.856015 9.89414 0.440526 10.9776 0.449823C12.061 0.45912 13.095 0.892442 13.8521 1.65446L18.1337 5.96428L22.518 1.72883C23.2931 0.979951 24.3373 0.564462 25.4208 0.573758C26.5042 0.583056 27.5382 1.01638 28.2952 1.7784L34.0041 7.52482C34.7611 8.28684 35.1792 9.31514 35.1664 10.3835C35.1536 11.4519 34.7109 12.4728 33.9357 13.2217L29.5515 17.4571L33.8331 21.7669C34.5902 22.529 35.0083 23.5573 34.9954 24.6256C34.9826 25.694 34.5399 26.7149 33.7647 27.4638L27.9191 33.111C27.1439 33.8599 26.0997 34.2754 25.0163 34.2661C23.9328 34.2568 22.8988 33.8235 22.1418 33.0615L17.8601 28.7517L13.4759 32.9871C12.7007 33.736 11.6566 34.1515 10.5731 34.1422C9.48966 34.1329 8.45568 33.6996 7.69864 32.9375ZM10.9292 4.4781L5.08357 10.1254L9.36522 14.4352C10.1223 15.1972 10.5404 16.2255 10.5275 17.2939C10.5147 18.3622 10.072 19.3832 9.29683 20.132L4.91259 24.3675L10.6215 30.1139L15.0057 25.8784C15.7809 25.1296 16.8251 24.7141 17.9085 24.7234C18.992 24.7327 20.0259 25.166 20.783 25.928L25.0646 30.2378L30.9103 24.5906L26.6286 20.2808C25.8716 19.5187 25.4535 18.4904 25.4663 17.4221C25.4791 16.3537 25.9218 15.3328 26.697 14.5839L31.0813 10.3485L25.3724 4.60204L20.9881 8.83749C20.213 9.58636 19.1688 10.0019 18.0854 9.99255C17.0019 9.98326 15.9679 9.54994 15.2109 8.78791L10.9292 4.4781Z" fill="#1557D3"/>
</svg>
