<svg width="36" height="35" viewBox="0 0 36 35" fill="none" xmlns="http://www.w3.org/2000/svg">
<path d="M7.69864 33.2154L1.98976 27.4689C1.23272 26.7069 0.814618 25.6786 0.827443 24.6103C0.840269 23.5419 1.28297 22.521 2.05815 21.7721L6.44239 17.5367L2.16074 13.2268C1.40369 12.4648 0.985596 11.4365 0.998421 10.3681C1.01125 9.29978 1.45394 8.27887 2.22913 7.52999L8.07479 1.88272C8.84997 1.13385 9.89414 0.718358 10.9776 0.727655C12.061 0.736952 13.095 1.17027 13.8521 1.9323L18.1337 6.24211L22.518 2.00666C23.2931 1.25778 24.3373 0.842294 25.4208 0.85159C26.5042 0.860888 27.5382 1.29421 28.2952 2.05623L34.0041 7.80265C34.7611 8.56467 35.1792 9.59297 35.1664 10.6613C35.1536 11.7297 34.7109 12.7506 33.9357 13.4995L29.5515 17.7349L33.8331 22.0448C34.5902 22.8068 35.0083 23.8351 34.9954 24.9035C34.9826 25.9718 34.5399 26.9927 33.7647 27.7416L27.9191 33.3889C27.1439 34.1378 26.0997 34.5532 25.0163 34.5439C23.9328 34.5346 22.8988 34.1013 22.1418 33.3393L17.8601 29.0295L13.4759 33.2649C12.7007 34.0138 11.6566 34.4293 10.5731 34.42C9.48966 34.4107 8.45568 33.9774 7.69864 33.2154ZM10.9292 4.75593L5.08357 10.4032L9.36522 14.713C10.1223 15.475 10.5404 16.5033 10.5275 17.5717C10.5147 18.6401 10.072 19.661 9.29683 20.4099L4.91259 24.6453L10.6215 30.3917L15.0057 26.1563C15.7809 25.4074 16.8251 24.9919 17.9085 25.0012C18.992 25.0105 20.0259 25.4438 20.783 26.2059L25.0646 30.5157L30.9103 24.8684L26.6286 20.5586C25.8716 19.7966 25.4535 18.7683 25.4663 17.6999C25.4791 16.6315 25.9218 15.6106 26.697 14.8617L31.0813 10.6263L25.3724 4.87987L20.9881 9.11532C20.213 9.86419 19.1688 10.2797 18.0854 10.2704C17.0019 10.2611 15.9679 9.82777 15.2109 9.06575L10.9292 4.75593Z" fill="white" fill-opacity="0.58"/>
</svg>
