<svg width="35" height="36" viewBox="0 0 35 36" fill="none" xmlns="http://www.w3.org/2000/svg">
<rect x="2.09483" y="2.32932" width="30.6963" height="31.8546" rx="5.79175" stroke="#C2D4F4" stroke-opacity="0.79" stroke-width="3.47505"/>
<path fill-rule="evenodd" clip-rule="evenodd" d="M24.6322 16.179H21.6947C21.3037 16.1792 20.9288 16.3345 20.6523 16.611C20.3758 16.8875 20.2204 17.2625 20.2202 17.6535V20.6037H24.6322L23.9861 25.0271H20.2202V33.1398H15.3684V25.0271H11.3625V20.6043H15.3165L15.3684 16.4058L15.3539 14.9012C15.3491 14.3929 15.445 13.8887 15.6361 13.4177C15.8272 12.9467 16.1098 12.5183 16.4675 12.1571C16.8252 11.796 17.2509 11.5093 17.72 11.3136C18.1891 11.1179 18.6923 11.0171 19.2006 11.0171H24.6322V16.179Z" fill="#C2D4F4" fill-opacity="0.79"/>
</svg>
