<svg width="44" height="45" viewBox="0 0 44 45" fill="none" xmlns="http://www.w3.org/2000/svg">
<path d="M5.4707 20.455C5.4707 13.5786 5.4707 10.1396 7.60781 8.0043C9.7431 5.86719 13.1822 5.86719 20.0585 5.86719H23.7054C30.5817 5.86719 34.0208 5.86719 36.1561 8.0043C38.2932 10.1396 38.2932 13.5786 38.2932 20.455V24.1019C38.2932 30.9782 38.2932 34.4173 36.1561 36.5526C34.0208 38.6897 30.5817 38.6897 23.7054 38.6897H20.0585C13.1822 38.6897 9.7431 38.6897 7.60781 36.5526C5.4707 34.4173 5.4707 30.9782 5.4707 24.1019V20.455Z" stroke="#C2D4F4" stroke-opacity="0.79" stroke-width="3.64694"/>
<path d="M30.0871 16.8078C31.5977 16.8078 32.8223 15.5832 32.8223 14.0726C32.8223 12.562 31.5977 11.3374 30.0871 11.3374C28.5765 11.3374 27.3519 12.562 27.3519 14.0726C27.3519 15.5832 28.5765 16.8078 30.0871 16.8078Z" fill="#C2D4F4" fill-opacity="0.79"/>
<path d="M21.8826 27.7492C24.9038 27.7492 27.353 25.3 27.353 22.2788C27.353 19.2575 24.9038 16.8083 21.8826 16.8083C18.8614 16.8083 16.4122 19.2575 16.4122 22.2788C16.4122 25.3 18.8614 27.7492 21.8826 27.7492Z" stroke="#C2D4F4" stroke-opacity="0.79" stroke-width="3.64694"/>
</svg>
