<svg width="46" height="36" viewBox="0 0 46 36" fill="none" xmlns="http://www.w3.org/2000/svg">
<path d="M22.9214 -0.00854492C24.8436 -0.00854492 26.8152 0.0409138 28.7261 0.121846L30.9832 0.229755L33.1436 0.357898L35.1669 0.495033L37.0149 0.638912C39.0203 0.792408 40.9073 1.6482 42.3441 3.05572C43.7808 4.46325 44.6751 6.33235 44.8698 8.33421L44.9597 9.28966L45.1283 11.3354C45.2857 13.4554 45.4026 15.7665 45.4026 17.9764C45.4026 20.1863 45.2857 22.4973 45.1283 24.6173L44.9597 26.6631C44.9305 26.9913 44.9012 27.3083 44.8698 27.6185C44.6751 29.6208 43.7804 31.4901 42.3432 32.8977C40.906 34.3053 39.0184 35.1608 37.0126 35.3138L35.1692 35.4555L33.1459 35.5949L30.9832 35.723L28.7261 35.8309C26.7923 35.9149 24.857 35.9584 22.9214 35.9613C20.9858 35.9584 19.0505 35.9149 17.1168 35.8309L14.8597 35.723L12.6992 35.5949L10.6759 35.4555L8.82799 35.3138C6.82256 35.1603 4.9355 34.3046 3.49878 32.897C2.06205 31.4895 1.16771 29.6204 0.97308 27.6185L0.883156 26.6631L0.714547 24.6173C0.542651 22.4077 0.451167 20.1926 0.440277 17.9764C0.440277 15.7665 0.557179 13.4554 0.714547 11.3354L0.883156 9.28966C0.912381 8.96143 0.941607 8.64445 0.97308 8.33421C1.16763 6.33271 2.06166 4.46389 3.49792 3.05641C4.93418 1.64893 6.82072 0.792914 8.82575 0.638912L10.6714 0.495033L12.6948 0.357898L14.8574 0.229755L17.1145 0.121846C19.049 0.0378403 20.9851 -0.00563297 22.9214 -0.00854492ZM22.9214 4.48769C21.0667 4.48769 19.1581 4.53714 17.3011 4.61358L15.1025 4.71924L12.9915 4.84289L11.0087 4.97777L9.19219 5.11941C8.23748 5.18714 7.33759 5.59071 6.65203 6.25858C5.96646 6.92646 5.5395 7.81549 5.44683 8.7681C5.1838 11.4861 4.93651 14.8695 4.93651 17.9764C4.93651 21.0833 5.1838 24.4667 5.44683 27.1847C5.63792 29.145 7.19361 30.6692 9.19219 30.8333L11.0087 30.9727L12.9915 31.1076L15.1025 31.2335L17.3011 31.3392C19.1581 31.4156 21.0667 31.4651 22.9214 31.4651C24.7761 31.4651 26.6848 31.4156 28.5417 31.3392L30.7404 31.2335L32.8513 31.1099L34.8342 30.975L36.6507 30.8333C37.6054 30.7656 38.5053 30.362 39.1908 29.6942C39.8764 29.0263 40.3033 28.1373 40.396 27.1847C40.6591 24.4667 40.9063 21.0833 40.9063 17.9764C40.9063 14.8695 40.6591 11.4861 40.396 8.7681C40.3033 7.81549 39.8764 6.92646 39.1908 6.25858C38.5053 5.59071 37.6054 5.18714 36.6507 5.11941L34.8342 4.98002L32.8513 4.84514L30.7404 4.71924L28.5417 4.61358C26.6693 4.53302 24.7955 4.49105 22.9214 4.48769ZM18.4252 12.5247C18.4251 12.305 18.4786 12.0885 18.5811 11.8942C18.6837 11.6999 18.8322 11.5336 19.0136 11.4097C19.1951 11.2858 19.4041 11.2082 19.6224 11.1835C19.8408 11.1588 20.0618 11.1878 20.2664 11.268L20.4485 11.3579L29.8906 16.8074C30.0786 16.9158 30.2377 17.0681 30.3543 17.2512C30.4708 17.4343 30.5415 17.6429 30.5603 17.8591C30.579 18.0754 30.5453 18.293 30.462 18.4934C30.3787 18.6939 30.2482 18.8713 30.0817 19.0105L29.8906 19.1454L20.4485 24.5971C20.2582 24.7073 20.0439 24.7693 19.8242 24.7777C19.6045 24.7861 19.386 24.7407 19.1879 24.6454C18.9897 24.5501 18.8179 24.4078 18.6873 24.2309C18.5567 24.054 18.4714 23.8478 18.4387 23.6304L18.4252 23.4281V12.5247Z" fill="#C2D4F4" fill-opacity="0.79"/>
</svg>
