<svg width="35" height="36" viewBox="0 0 35 36" fill="none" xmlns="http://www.w3.org/2000/svg">
<g clip-path="url(#clip0_210_22)">
<path fill-rule="evenodd" clip-rule="evenodd" d="M26.4604 11.9348C26.5025 11.6917 26.4753 11.4423 26.3815 11.2127C26.2878 10.983 26.1309 10.7814 25.9272 10.6289C25.7236 10.4764 25.4806 10.3786 25.2236 10.3456C24.9666 10.3127 24.705 10.3458 24.4661 10.4415L7.93596 17.0536C6.78368 17.5146 6.72471 19.0978 7.93596 19.5754C9.13533 20.0505 10.3522 20.4849 11.5842 20.8776C12.7133 21.232 13.9448 21.5599 14.9318 21.6526C15.2015 21.9594 15.5408 22.2551 15.8869 22.5251C16.4156 22.9383 17.0517 23.3635 17.709 23.7713C19.0257 24.5886 20.4863 25.3701 21.4704 25.8788C22.6468 26.485 24.0553 25.787 24.266 24.5684L26.4604 11.9348ZM9.78907 18.3053L24.4091 12.4573L22.3617 24.2488C21.3959 23.7501 20.0049 23.0035 18.7656 22.234C18.1944 21.8856 17.643 21.5088 17.1136 21.1053C16.9721 20.9955 16.8347 20.8809 16.7018 20.7619L20.5308 17.1252C20.7122 16.953 20.8141 16.7194 20.8142 16.4758C20.8143 16.2322 20.7125 15.9985 20.5313 15.8262C20.35 15.6539 20.1041 15.5571 19.8477 15.557C19.5912 15.5569 19.3453 15.6536 19.1639 15.8258L14.9714 19.8086C14.2619 19.7223 13.2739 19.4725 12.1893 19.1327C11.3819 18.8772 10.5818 18.601 9.79004 18.3044L9.78907 18.3053Z" fill="#C2D4F4" fill-opacity="0.79"/>
</g>
<rect x="1.86538" y="1.73245" width="30.7403" height="31.9003" rx="5.80005" stroke="#C2D4F4" stroke-opacity="0.79" stroke-width="3.48003"/>
<defs>
<clipPath id="clip0_210_22">
<rect width="23.2002" height="22.0402" fill="white" transform="translate(5.34586 6.37329)"/>
</clipPath>
</defs>
</svg>
