<svg width="16" height="16" viewBox="0 0 16 16" fill="none" xmlns="http://www.w3.org/2000/svg">
<path d="M7.99996 1.33325C6.58547 1.33325 5.22892 1.89516 4.22872 2.89535C3.22853 3.89554 2.66663 5.2521 2.66663 6.66659C2.66663 10.2666 7.36663 14.3333 7.56663 14.5066C7.68738 14.6099 7.84106 14.6666 7.99996 14.6666C8.15886 14.6666 8.31254 14.6099 8.43329 14.5066C8.66663 14.3333 13.3333 10.2666 13.3333 6.66659C13.3333 5.2521 12.7714 3.89554 11.7712 2.89535C10.771 1.89516 9.41445 1.33325 7.99996 1.33325ZM7.99996 13.0999C6.57996 11.7666 3.99996 8.89325 3.99996 6.66659C3.99996 5.60572 4.42139 4.5883 5.17153 3.83816C5.92168 3.08801 6.93909 2.66659 7.99996 2.66659C9.06082 2.66659 10.0782 3.08801 10.8284 3.83816C11.5785 4.5883 12 5.60572 12 6.66659C12 8.89325 9.41996 11.7733 7.99996 13.0999ZM7.99996 3.99992C7.47254 3.99992 6.95697 4.15632 6.51844 4.44933C6.07991 4.74235 5.73811 5.15883 5.53628 5.6461C5.33445 6.13337 5.28164 6.66954 5.38453 7.18683C5.48743 7.70411 5.7414 8.17926 6.11434 8.5522C6.48728 8.92514 6.96244 9.17912 7.47972 9.28201C7.997 9.38491 8.53318 9.3321 9.02045 9.13026C9.50772 8.92843 9.92419 8.58664 10.2172 8.14811C10.5102 7.70957 10.6666 7.194 10.6666 6.66659C10.6666 5.95934 10.3857 5.28106 9.88558 4.78097C9.38548 4.28087 8.7072 3.99992 7.99996 3.99992ZM7.99996 7.99992C7.73625 7.99992 7.47846 7.92172 7.2592 7.77521C7.03993 7.6287 6.86904 7.42046 6.76812 7.17683C6.6672 6.9332 6.6408 6.66511 6.69225 6.40647C6.74369 6.14782 6.87068 5.91025 7.05715 5.72378C7.24362 5.53731 7.4812 5.41032 7.73984 5.35887C7.99848 5.30742 8.26657 5.33383 8.5102 5.43475C8.75384 5.53566 8.96208 5.70656 9.10858 5.92583C9.25509 6.14509 9.33329 6.40288 9.33329 6.66659C9.33329 7.02021 9.19282 7.35935 8.94277 7.60939C8.69272 7.85944 8.35358 7.99992 7.99996 7.99992Z" fill="#0129E3"/>
</svg>
