<svg width="451" height="451" viewBox="0 0 451 451" fill="none" xmlns="http://www.w3.org/2000/svg">
<path d="M225.5 408.719C189.263 408.719 153.839 397.973 123.709 377.841C93.5789 357.709 70.0953 329.094 56.2279 295.615C42.3605 262.136 38.7322 225.297 45.8017 189.756C52.8712 154.215 70.3211 121.568 95.9447 95.9449C121.568 70.3213 154.215 52.8714 189.756 45.8018C225.297 38.7323 262.136 42.3606 295.615 56.228C329.094 70.0954 357.708 93.579 377.841 123.709C397.973 153.839 408.719 189.263 408.719 225.5C408.719 274.093 389.415 320.695 355.055 355.055C320.695 389.415 274.093 408.719 225.5 408.719ZM225.5 70.4688C194.838 70.4688 164.864 79.5612 139.369 96.5963C113.874 113.631 94.0037 137.844 82.2698 166.172C70.5358 194.5 67.4657 225.672 73.4476 255.745C79.4295 285.818 94.1948 313.442 115.876 335.124C137.558 356.805 165.182 371.57 195.255 377.552C225.328 383.534 256.5 380.464 284.828 368.73C313.156 356.996 337.369 337.126 354.404 311.631C371.439 286.136 380.531 256.162 380.531 225.5C380.531 184.383 364.198 144.95 335.124 115.876C306.05 86.8024 266.617 70.4688 225.5 70.4688Z" fill="white" fill-opacity="0.1"/>
<path d="M253.687 352.344H197.312C189.837 352.344 182.667 349.374 177.381 344.088C172.095 338.802 169.125 331.632 169.125 324.156V281.875H126.844C119.368 281.875 112.198 278.905 106.912 273.619C101.626 268.333 98.6561 261.163 98.6561 253.688V197.312C98.6561 189.837 101.626 182.667 106.912 177.381C112.198 172.095 119.368 169.125 126.844 169.125H169.125V126.844C169.125 119.368 172.095 112.198 177.381 106.912C182.667 101.626 189.837 98.6563 197.312 98.6562H253.687C261.163 98.6563 268.333 101.626 273.619 106.912C278.905 112.198 281.875 119.368 281.875 126.844V169.125H324.156C331.632 169.125 338.802 172.095 344.088 177.381C349.374 182.667 352.344 189.837 352.344 197.312V253.688C352.344 261.163 349.374 268.333 344.088 273.619C338.802 278.905 331.632 281.875 324.156 281.875H281.875V324.156C281.875 331.632 278.905 338.802 273.619 344.088C268.333 349.374 261.163 352.344 253.687 352.344ZM126.844 197.312V253.688H169.125C176.601 253.688 183.77 256.657 189.056 261.943C194.343 267.23 197.312 274.399 197.312 281.875V324.156H253.687V281.875C253.687 274.399 256.657 267.23 261.943 261.943C267.229 256.657 274.399 253.688 281.875 253.688H324.156V197.312H281.875C274.399 197.312 267.229 194.343 261.943 189.057C256.657 183.77 253.687 176.601 253.687 169.125V126.844H197.312V169.125C197.312 176.601 194.343 183.77 189.056 189.057C183.77 194.343 176.601 197.312 169.125 197.312H126.844Z" fill="white" fill-opacity="0.1"/>
</svg>
