<svg width="24" height="25" viewBox="0 0 24 25" fill="none" xmlns="http://www.w3.org/2000/svg">
<path d="M2.74622 1.80556C1.20083 3.46829 -0.121344 5.93671 0.00886974 9.03971C0.137652 12.1427 1.70737 15.6322 5.44636 19.3597L7.47111 17.3419C4.06839 13.9523 2.95942 11.1031 2.86785 8.92135C2.7777 6.74098 3.69492 4.98129 4.84538 3.74494L2.74622 1.80556ZM5.44636 19.3597C9.10093 23.0003 12.4836 24.5362 15.52 24.6816C18.5536 24.8285 20.9733 23.5765 22.6775 22.1775L20.8602 19.9758C19.5209 21.0738 17.7752 21.9351 15.6574 21.8339C13.5439 21.7312 10.7923 20.6546 7.47111 17.3419L5.44636 19.3597ZM22.7605 16.4464L20.8259 14.5184L18.8026 16.5362L20.7372 18.4642L22.7605 16.4464ZM15.4099 13.9837L13.9174 14.9762L15.5029 17.3491L16.9967 16.358L15.4099 13.9837ZM12.1116 14.7965L10.0253 12.7174L8.00055 14.7338L10.0883 16.8143L12.1116 14.7965ZM9.84501 10.9178L10.8409 9.43044L8.45845 7.84757L7.46396 9.33632L9.84501 10.9178ZM10.3029 4.03299L8.18085 1.9168L6.15753 3.9346L8.27958 6.04937L10.3029 4.03299ZM10.8409 9.43044C11.3912 8.60759 11.6385 7.62017 11.5406 6.63614C11.4428 5.65211 11.0045 4.73224 10.3029 4.03299L8.27958 6.04937C8.51357 6.28248 8.65927 6.5892 8.69188 6.91731C8.72449 7.24543 8.642 7.57324 8.45845 7.84757L10.8409 9.43044ZM13.9174 14.9762C13.6421 15.1591 13.3118 15.2413 12.9825 15.2088C12.6533 15.1763 12.3455 15.0297 12.1116 14.7965L10.0883 16.8143C10.7898 17.5132 11.7126 17.9483 12.6997 18.0458C13.6868 18.1433 14.6773 17.8971 15.5029 17.3491L13.9174 14.9762ZM20.8259 14.5184C20.1245 13.8194 19.2018 13.3854 18.2147 13.2876C17.2276 13.1899 16.2356 13.4358 15.4099 13.9837L16.9967 16.358C17.272 16.1751 17.6024 16.0929 17.9316 16.1254C18.2609 16.1579 18.5686 16.3031 18.8026 16.5362L20.8259 14.5184ZM22.6775 22.1775C24.6107 20.5918 24.2372 17.9166 22.7605 16.4464L20.7372 18.4642C20.9769 18.6957 21.12 19.009 21.1378 19.3412C21.1455 19.4615 21.1241 19.5818 21.0756 19.6922C21.027 19.8026 20.9527 19.8998 20.8588 19.9758L22.6775 22.1775ZM10.0253 12.7174C9.79167 12.4844 9.64476 12.1779 9.61216 11.8501C9.57955 11.5223 9.66183 11.192 9.84501 10.9178L7.46396 9.33632C6.91367 10.1592 6.66641 11.1466 6.76424 12.1306C6.86207 13.1147 7.29894 14.0345 8.00055 14.7338L10.0253 12.7174ZM4.84538 3.74494C4.97845 3.60234 5.14587 3.53532 5.37052 3.551C5.6699 3.58183 5.94868 3.71863 6.15753 3.9346L8.18085 1.9168C6.83579 0.576346 4.36602 0.0629814 2.74622 1.80556L4.84538 3.74494Z" fill="#1354D2"/>
</svg>
