<svg width="150" height="100" viewBox="0 0 212 212" fill="none" xmlns="http://www.w3.org/2000/svg">
<path d="M79.2579 88.0655L107.95 109.589C109.727 110.922 111.943 111.534 114.153 111.302C116.362 111.07 118.403 110.011 119.865 108.338L176.13 44.033" stroke="white" stroke-opacity="0.53" stroke-width="17.613" stroke-linecap="round"/>
<path d="M184.937 105.678C184.938 122.239 179.75 138.384 170.104 151.846C160.458 165.307 146.837 175.409 131.155 180.732C115.473 186.055 98.5176 186.333 82.6699 181.525C66.8222 176.717 52.8785 167.067 42.7973 153.928C32.716 140.789 27.0036 124.822 26.4624 108.27C25.9212 91.7179 30.5783 75.4122 39.7797 61.6428C48.9811 47.8734 62.2646 37.3321 77.7643 31.4995C93.2641 25.6668 110.202 24.8359 126.198 29.1233" stroke="white" stroke-opacity="0.53" stroke-width="17.613" stroke-linecap="round"/>
</svg>
