<svg width="42" height="35" viewBox="0 0 42 35" fill="none" xmlns="http://www.w3.org/2000/svg">
<path fill-rule="evenodd" clip-rule="evenodd" d="M41.9583 3.55487C42.0494 3.01533 41.9906 2.46182 41.7879 1.952C41.5852 1.44219 41.2461 0.994725 40.8059 0.656237C40.3656 0.317749 39.8404 0.100623 39.2849 0.0274791C38.7294 -0.0456644 38.164 0.0278515 37.6475 0.240368L1.91616 14.9171C-0.574591 15.9404 -0.702053 19.4547 1.91616 20.5147C4.5087 21.5695 7.13904 22.5336 9.80213 23.4052C12.2427 24.192 14.9048 24.9197 17.0383 25.1256C17.6212 25.8065 18.3547 26.4628 19.1027 27.0621C20.2457 27.9794 21.6207 28.9232 23.0415 29.8283C25.8875 31.6425 29.0448 33.3772 31.172 34.5065C33.715 35.8519 36.7595 34.3027 37.215 31.5977L41.9583 3.55487ZM5.92183 17.6955L37.5243 4.71474L33.0986 30.8883C31.0111 29.7814 28.0042 28.1242 25.3254 26.416C24.0908 25.6427 22.8988 24.8064 21.7544 23.9107C21.4485 23.667 21.1516 23.4127 20.8642 23.1483L29.141 15.0761C29.533 14.6939 29.7534 14.1754 29.7536 13.6347C29.7538 13.0939 29.5338 12.5752 29.142 12.1928C28.7502 11.8103 28.2187 11.5953 27.6644 11.5951C27.1101 11.5949 26.5784 11.8095 26.1863 12.1917L17.1239 21.0324C15.5902 20.8408 13.4547 20.2864 11.1102 19.5322C9.36478 18.9649 7.63539 18.3518 5.92392 17.6935L5.92183 17.6955Z" fill="white"/>
</svg>
